<?xml version="1.0" encoding="UTF-8"?>
<svg id="Layer_1" xmlns="http://www.w3.org/2000/svg" version="1.1" viewBox="0 0 252 252">
  <!-- Generator: Adobe Illustrator 30.1.0, SVG Export Plug-In . SVG Version: 2.1.1 Build 136)  -->
  <defs>
    <style>
      .st0 {
        stroke-dasharray: 3.1 3.1;
      }

      .st0, .st1, .st2, .st3, .st4 {
        fill: none;
        stroke-linecap: round;
        stroke-linejoin: round;
      }

      .st0, .st1, .st3, .st4 {
        stroke-width: .75px;
      }

      .st0, .st1, .st4 {
        stroke: blue;
      }

      .st2 {
        stroke: #000;
      }

      .st5 {
        fill: #939598;
        fill-opacity: .5;
      }

      .st6 {
        display: none;
      }

      .st3 {
        stroke: red;
      }

      .st4 {
        stroke-dasharray: 3 3;
      }
    </style>
  </defs>
  <g id="color" class="st6">
    <path class="st5" d="M112,88.7l33.5,10.9-27.1-34.2-6.4,23.3Z"/>
    <path class="st5" d="M112,88.7l6.4-23.3-42.9,14.7s36.5,8.6,36.5,8.6Z"/>
    <path class="st5" d="M75.5,80.1l9.3-50.5-53.2,44,43.8,6.5h.1Z"/>
    <path class="st5" d="M118.4,65.4l-33.6-35.8-9.3,50.5s42.9-14.7,42.9-14.7Z"/>
    <path class="st5" d="M142.3,62.2l-23.9,3.2,27.1,34.2-3.1-37.4h-.1Z"/>
    <path class="st5" d="M135,18.5l-50.2,11.1,33.6,35.8,16.6-46.9Z"/>
    <path class="st5" d="M31.6,73.6l53.2-44-48.1-7.1-5,51.2-.1-.1Z"/>
    <path class="st5" d="M135,18.5l-16.6,46.9,23.9-3.2-7.4-43.7h.1Z"/>
    <path class="st5" d="M91.3,117.2l20.7-28.5-40.9,15.2,20.2,13.3Z"/>
    <path class="st5" d="M91.3,117.2l-20.2-13.3.8,45.4s19.4-32.1,19.4-32.1Z"/>
    <path class="st5" d="M71.8,149.3l-45.2-24.5,25.4,64.2,19.7-39.7h.1Z"/>
    <path class="st5" d="M71.1,103.9l-44.4,20.9,45.2,24.5s-.8-45.4-.8-45.4Z"/>
    <path class="st5" d="M75.5,80.1l-4.4,23.7,40.9-15.2-36.5-8.6v.1Z"/>
    <path class="st5" d="M31.6,73.6l-4.9,51.2,44.4-20.9-39.5-30.2v-.1Z"/>
    <path class="st5" d="M52.1,189l-25.4-64.2-21.7,43.6,47.1,20.6Z"/>
    <path class="st5" d="M31.6,73.6l39.5,30.2,4.4-23.7-43.8-6.5h-.1Z"/>
    <path class="st5" d="M112,145.7l-20.7-28.5,1.8,43.6,18.9-15.1h0Z"/>
    <path class="st5" d="M112,145.7l-18.9,15.1,43.4,13.3-24.5-28.4h0Z"/>
    <path class="st5" d="M136.5,174.1l-37.2,35.4,68.9-4.4-31.7-31h0Z"/>
    <path class="st5" d="M93.1,160.8l6.2,48.7,37.2-35.4-43.4-13.3Z"/>
    <path class="st5" d="M71.8,149.3l21.2,11.5-1.8-43.6s-19.4,32.1-19.4,32.1Z"/>
    <path class="st5" d="M52.1,189l47.1,20.5-6.2-48.7-41,28.2h.1Z"/>
    <path class="st5" d="M168.1,205.1l-68.9,4.4,34.7,34.1,34.2-38.4v-.1Z"/>
    <path class="st5" d="M52.1,189l41-28.2-21.2-11.5-19.7,39.7h-.1Z"/>
    <path class="st5" d="M145.5,134.8l-33.5,10.9,42,11.8-8.5-22.6v-.1Z"/>
    <path class="st5" d="M145.5,134.8l8.5,22.6,26.1-37.2-34.6,14.5v.1Z"/>
    <path class="st5" d="M180,120.3l22.2,46.3,17.1-66.9-39.3,20.5v.1Z"/>
    <path class="st5" d="M154,157.4l48.2,9.2-22.2-46.3-26.1,37.2.1-.1Z"/>
    <path class="st5" d="M136.5,174.1l17.5-16.6-42-11.8,24.5,28.4h0Z"/>
    <path class="st5" d="M168.1,205.1l34.1-38.5-48.2-9.2,14.2,47.7h-.1Z"/>
    <path class="st5" d="M219.3,99.7l-17.1,66.9,43.1-22.5-26-44.4h0Z"/>
    <path class="st5" d="M168.1,205.1l-14.2-47.7-17.5,16.6,31.7,31v.1Z"/>
    <path class="st5" d="M145.5,99.6v35.2l24.2-36.3-24.2,1.1Z"/>
    <path class="st5" d="M145.5,99.6l24.2-1.1-27.3-36.3s3.1,37.4,3.1,37.4Z"/>
    <path class="st5" d="M142.3,62.2l50.9-6.8-58.3-37,7.4,43.7v.1Z"/>
    <path class="st5" d="M169.6,98.5l23.6-43-50.9,6.8,27.3,36.3v-.1Z"/>
    <path class="st5" d="M180,120.3l-10.4-21.8-24.2,36.3,34.6-14.5Z"/>
    <path class="st5" d="M219.3,99.7l-26.1-44.3-23.6,43,49.7,1.3h0Z"/>
    <path class="st5" d="M135,18.5l58.3,37-8.1-48-50.2,11Z"/>
    <path class="st5" d="M219.3,99.7l-49.7-1.3,10.4,21.8,39.3-20.5Z"/>
    <path class="st5" d="M145.5,99.6l-33.5-10.9-20.7,28.5,20.7,28.5,33.5-10.9v-35.2Z"/>
  </g>
  <g id="center">
    <path class="st3" d="M112,88.7l33.5,10.9"/>
    <path class="st3" d="M91.3,117.2l20.7-28.5"/>
    <path class="st3" d="M112,145.7l-20.7-28.5"/>
    <path class="st3" d="M145.5,134.8l-33.5,10.9"/>
    <path class="st3" d="M145.5,99.6v35.2"/>
  </g>
  <g id="valley">
    <path class="st3" d="M112,88.7l6.4-23.3"/>
    <path class="st3" d="M75.5,80.1l36.5,8.6"/>
    <path class="st3" d="M75.5,80.1l9.3-50.5"/>
    <path class="st3" d="M31.6,73.6l43.8,6.5"/>
    <path class="st3" d="M91.3,117.2l-20.2-13.3"/>
    <path class="st3" d="M71.8,149.3l19.4-32.1"/>
    <path class="st3" d="M71.8,149.3l-45.2-24.5"/>
    <path class="st3" d="M52.1,189l19.7-39.7"/>
    <path class="st3" d="M112,145.7l-18.9,15.1"/>
    <path class="st3" d="M136.5,174.1l-24.5-28.4"/>
    <path class="st3" d="M136.5,174.1l-37.2,35.4"/>
    <path class="st3" d="M168.1,205.1l-31.7-31"/>
    <path class="st3" d="M145.5,134.8l8.5,22.6"/>
    <path class="st3" d="M180,120.3l-34.6,14.5"/>
    <path class="st3" d="M180,120.3l22.2,46.3"/>
    <path class="st3" d="M219.3,99.7l-39.3,20.5"/>
    <path class="st3" d="M145.5,99.6l24.2-1.1"/>
    <path class="st3" d="M142.3,62.2l3.1,37.4"/>
    <path class="st3" d="M142.3,62.2l50.9-6.8"/>
    <path class="st3" d="M135,18.5l7.4,43.7"/>
  </g>
  <g id="mountain">
    <g>
      <polyline class="st1" points="84.8 29.6 118.4 65.4 145.5 99.6 144.5 98.4"/>
      <line class="st0" x1="142.6" y1="95.9" x2="120.3" y2="67.8"/>
      <line class="st1" x1="119.3" y1="66.6" x2="118.4" y2="65.4"/>
    </g>
    <g>
      <line class="st1" x1="118.4" y1="65.4" x2="117.4" y2="64.3"/>
      <line class="st0" x1="115.3" y1="62" x2="86.8" y2="31.8"/>
      <line class="st1" x1="85.8" y1="30.7" x2="84.8" y2="29.6"/>
    </g>
    <g>
      <polyline class="st1" points="26.6 124.8 71.1 103.9 112 88.7 110.6 89.2"/>
      <line class="st0" x1="107.6" y1="90.3" x2="74" y2="102.8"/>
      <line class="st1" x1="72.5" y1="103.3" x2="71.1" y2="103.9"/>
    </g>
    <g>
      <line class="st1" x1="71.1" y1="103.9" x2="69.7" y2="104.5"/>
      <line class="st0" x1="66.9" y1="105.8" x2="29.4" y2="123.5"/>
      <line class="st1" x1="28" y1="124.2" x2="26.7" y2="124.8"/>
    </g>
    <g>
      <polyline class="st1" points="99.3 208.75 93.1 160.8 91.3 117.2 91.3 118.7"/>
      <line class="st0" x1="91.5" y1="121.8" x2="92.9" y2="157.7"/>
      <line class="st1" x1="93" y1="159.3" x2="93.1" y2="160.8"/>
    </g>
    <g>
      <line class="st1" x1="93.1" y1="160.8" x2="93.2" y2="162.2"/>
      <line class="st0" x1="93.6" y1="165.3" x2="98.9" y2="206.4"/>
      <line class="st1" x1="99.1" y1="208" x2="99.2" y2="209.5"/>
    </g>
    <g>
      <polyline class="st1" points="202.2 166.6 154 157.4 112 145.7 113.4 146.1"/>
      <line class="st0" x1="116.4" y1="146.9" x2="151" y2="156.6"/>
      <line class="st1" x1="152.5" y1="157" x2="154" y2="157.4"/>
    </g>
    <g>
      <line class="st1" x1="154" y1="157.4" x2="155.4" y2="157.7"/>
      <line class="st0" x1="158.5" y1="158.3" x2="199.2" y2="166"/>
      <line class="st1" x1="200.7" y1="166.3" x2="202.2" y2="166.6"/>
    </g>
    <g>
      <polyline class="st1" points="192.5 56.8 169.7 98.5 145.5 134.8 146.3 133.5"/>
      <line class="st0" x1="148" y1="130.9" x2="167.9" y2="101"/>
      <line class="st1" x1="168.8" y1="99.7" x2="169.6" y2="98.5"/>
    </g>
    <g>
      <line class="st1" x1="169.6" y1="98.5" x2="170.3" y2="97.2"/>
      <line class="st0" x1="171.8" y1="94.5" x2="191.8" y2="58.1"/>
      <line class="st1" x1="192.5" y1="56.8" x2="193.2" y2="55.4"/>
    </g>
    <g>
      <polyline class="st1" points="118.4 65.4 142.3 62.2 140.8 62.4"/>
      <line class="st4" x1="137.9" y1="62.8" x2="121.4" y2="65"/>
      <line class="st1" x1="119.9" y1="65.2" x2="118.4" y2="65.4"/>
    </g>
    <g>
      <polyline class="st1" points="71.1 103.9 75.5 80.1 75.2 81.6"/>
      <line class="st4" x1="74.6" y1="84.6" x2="71.6" y2="100.9"/>
      <line class="st1" x1="71.4" y1="102.4" x2="71.1" y2="103.9"/>
    </g>
    <g>
      <line class="st4" x1="75.8" y1="151.4" x2="90.4" y2="159.3"/>
      <polyline class="st1" points="91.7 160 93.1 160.8 71.8 149.3 73.2 150"/>
    </g>
    <g>
      <polyline class="st1" points="154 157.4 136.5 174.1 137.6 173"/>
      <line class="st4" x1="139.7" y1="171" x2="151.8" y2="159.5"/>
      <line class="st1" x1="152.9" y1="158.5" x2="154" y2="157.4"/>
    </g>
    <g>
      <polyline class="st1" points="169.7 98.5 180 120.3 179.4 118.9"/>
      <line class="st4" x1="178.1" y1="116.2" x2="170.9" y2="101.2"/>
      <line class="st1" x1="170.3" y1="99.8" x2="169.6" y2="98.5"/>
    </g>
  </g>
  <g id="outline">
    <path class="st2" d="M31.6,73.6l5-51.2"/>
    <path class="st2" d="M36.6,22.5l48.1,7.1"/>
    <path class="st2" d="M135,18.5l-50.2,11.1"/>
    <path class="st2" d="M52.1,189l-47.1-20.6"/>
    <path class="st2" d="M5,168.3l21.7-43.6"/>
    <path class="st2" d="M31.6,73.6l-4.9,51.2"/>
    <path class="st2" d="M168.1,205.1l-34.2,38.4"/>
    <path class="st2" d="M134,243.5l-34.7-34.1"/>
    <path class="st2" d="M52.1,189l47.1,20.5"/>
    <path class="st2" d="M219.3,99.7l26,44.4"/>
    <path class="st2" d="M245.3,144.1l-43.1,22.5"/>
    <path class="st2" d="M168.1,205.1l34.1-38.5"/>
    <path class="st2" d="M135,18.5l50.2-11"/>
    <path class="st2" d="M185.2,7.5l8.1,48"/>
    <path class="st2" d="M219.3,99.7l-26.1-44.3"/>
  </g>
</svg>